<mxfile host="app.diagrams.net" modified="2025-01-27T12:00:00.000Z" agent="5.0" version="22.1.0" etag="draw-id" type="device">
  <diagram name="High-Level Integration Flow" id="high-level-integration">
    <mxGraphModel dx="1600" dy="900" grid="1" gridSize="10" guides="1" tooltips="1" connect="1" arrows="1" fold="1" page="1" pageScale="1" pageWidth="1600" pageHeight="900" math="0" shadow="0">
      <root>
        <mxCell id="0" />
        <mxCell id="1" parent="0" />
        
        <mxCell id="title" value="Fraud Switch - High-Level Integration Flow" style="text;html=1;strokeColor=none;fillColor=none;align=center;verticalAlign=middle;whiteSpace=wrap;rounded=0;fontSize=24;fontStyle=1" vertex="1" parent="1">
          <mxGeometry x="400" y="20" width="800" height="40" as="geometry" />
        </mxCell>
        
        <mxCell id="subtitle" value="End-to-End Transaction Fraud Evaluation Journey" style="text;html=1;strokeColor=none;fillColor=none;align=center;verticalAlign=middle;whiteSpace=wrap;rounded=0;fontSize=14;fontColor=#0066CC;fontStyle=1" vertex="1" parent="1">
          <mxGeometry x="400" y="65" width="800" height="25" as="geometry" />
        </mxCell>
        
        <mxCell id="legend-box" value="" style="rounded=1;whiteSpace=wrap;html=1;fillColor=#f5f5f5;strokeColor=#666666;dashed=1;" vertex="1" parent="1">
          <mxGeometry x="40" y="110" width="240" height="140" as="geometry" />
        </mxCell>
        <mxCell id="legend-title" value="Flow Legend" style="text;html=1;strokeColor=none;fillColor=none;align=left;verticalAlign=middle;whiteSpace=wrap;rounded=0;fontSize=14;fontStyle=1" vertex="1" parent="1">
          <mxGeometry x="50" y="120" width="150" height="20" as="geometry" />
        </mxCell>
        <mxCell id="legend-sync" value="Synchronous (Blocking)" style="text;html=1;strokeColor=none;fillColor=none;align=left;verticalAlign=middle;whiteSpace=wrap;rounded=0;fontSize=10;" vertex="1" parent="1">
          <mxGeometry x="90" y="150" width="140" height="20" as="geometry" />
        </mxCell>
        <mxCell id="legend-async" value="Asynchronous (Non-blocking)" style="text;html=1;strokeColor=none;fillColor=none;align=left;verticalAlign=middle;whiteSpace=wrap;rounded=0;fontSize=10;" vertex="1" parent="1">
          <mxGeometry x="90" y="175" width="140" height="20" as="geometry" />
        </mxCell>
        <mxCell id="legend-parallel" value="Parallel Execution" style="text;html=1;strokeColor=none;fillColor=none;align=left;verticalAlign=middle;whiteSpace=wrap;rounded=0;fontSize=10;" vertex="1" parent="1">
          <mxGeometry x="90" y="200" width="140" height="20" as="geometry" />
        </mxCell>
        <mxCell id="legend-decision" value="Decision Point" style="text;html=1;strokeColor=none;fillColor=none;align=left;verticalAlign=middle;whiteSpace=wrap;rounded=0;fontSize=10;" vertex="1" parent="1">
          <mxGeometry x="90" y="225" width="140" height="20" as="geometry" />
        </mxCell>
        <mxCell id="legend-sync-line" value="" style="endArrow=classic;html=1;strokeWidth=3;strokeColor=#0066CC;" edge="1" parent="1">
          <mxGeometry width="50" height="50" relative="1" as="geometry">
            <mxPoint x="50" y="160" as="sourcePoint" />
            <mxPoint x="80" y="160" as="targetPoint" />
          </mxGeometry>
        </mxCell>
        <mxCell id="legend-async-line" value="" style="endArrow=classic;html=1;strokeWidth=2;strokeColor=#009900;dashed=1;" edge="1" parent="1">
          <mxGeometry width="50" height="50" relative="1" as="geometry">
            <mxPoint x="50" y="185" as="sourcePoint" />
            <mxPoint x="80" y="185" as="targetPoint" />
          </mxGeometry>
        </mxCell>
        <mxCell id="legend-parallel-box" value="" style="rounded=1;whiteSpace=wrap;html=1;fillColor=#fff2cc;strokeColor=#d6b656;strokeWidth=2;" vertex="1" parent="1">
          <mxGeometry x="50" y="195" width="30" height="30" as="geometry" />
        </mxCell>
        <mxCell id="legend-decision-diamond" value="" style="rhombus;whiteSpace=wrap;html=1;fillColor=#f8cecc;strokeColor=#b85450;strokeWidth=2;" vertex="1" parent="1">
          <mxGeometry x="50" y="220" width="30" height="30" as="geometry" />
        </mxCell>

        <mxCell id="gateway-layer" value="PAYMENT GATEWAY" style="text;html=1;strokeColor=none;fillColor=none;align=left;verticalAlign=middle;whiteSpace=wrap;rounded=0;fontSize=14;fontStyle=1;fontColor=#9900CC;" vertex="1" parent="1">
          <mxGeometry x="320" y="110" width="200" height="30" as="geometry" />
        </mxCell>

        <mxCell id="payment-gateway" value="Payment Gateway&#xa;(RAFT / VAP / EXPRESS / WPG)&#xa;&#xa;Transaction Data:&#xa;• PAN&#xa;• Amount, Currency&#xa;• Merchant ID&#xa;• Customer details&#xa;• Device fingerprint" style="rounded=1;whiteSpace=wrap;html=1;fillColor=#e1d5e7;strokeColor=#9673a6;verticalAlign=top;fontSize=11;fontStyle=1;strokeWidth=3;" vertex="1" parent="1">
          <mxGeometry x="320" y="150" width="200" height="130" as="geometry" />
        </mxCell>

        <mxCell id="ets" value="ETS&#xa;(Entry Transaction Service)&#xa;&#xa;Gateway Aggregation&#xa;Request Validation&#xa;Schema Normalization" style="rounded=1;whiteSpace=wrap;html=1;fillColor=#dae8fc;strokeColor=#6c8ebf;verticalAlign=top;fontSize=11;fontStyle=1;strokeWidth=2;" vertex="1" parent="1">
          <mxGeometry x="580" y="150" width="200" height="130" as="geometry" />
        </mxCell>

        <mxCell id="gateway-to-ets" value="POST /fraudswitch/v1/evaluate&#xa;&#xa;JSON payload&#xa;p99 &lt;10ms" style="endArrow=classic;html=1;exitX=1;exitY=0.5;exitDx=0;exitDy=0;entryX=0;entryY=0.5;entryDx=0;entryDy=0;strokeWidth=3;strokeColor=#0066CC;fontSize=9;" edge="1" parent="1" source="payment-gateway" target="ets">
          <mxGeometry x="0.1" width="50" height="50" relative="1" as="geometry">
            <mxPoint x="600" y="300" as="sourcePoint" />
            <mxPoint x="650" y="250" as="targetPoint" />
            <mxPoint as="offset" />
          </mxGeometry>
        </mxCell>

        <mxCell id="fraud-router" value="Fraud Router&#xa;(Core Orchestrator)&#xa;&#xa;Product Selection&#xa;Provider Routing&#xa;Request Enrichment" style="rounded=1;whiteSpace=wrap;html=1;fillColor=#dae8fc;strokeColor=#6c8ebf;verticalAlign=top;fontSize=11;fontStyle=1;strokeWidth=2;" vertex="1" parent="1">
          <mxGeometry x="840" y="150" width="200" height="130" as="geometry" />
        </mxCell>

        <mxCell id="ets-to-router" value="Internal call&#xa;&#xa;p99 &lt;5ms" style="endArrow=classic;html=1;exitX=1;exitY=0.5;exitDx=0;exitDy=0;entryX=0;entryY=0.5;entryDx=0;entryDy=0;strokeWidth=3;strokeColor=#0066CC;fontSize=9;" edge="1" parent="1" source="ets" target="fraud-router">
          <mxGeometry x="0.1" width="50" height="50" relative="1" as="geometry">
            <mxPoint x="800" y="300" as="sourcePoint" />
            <mxPoint x="850" y="250" as="targetPoint" />
            <mxPoint as="offset" />
          </mxGeometry>
        </mxCell>

        <mxCell id="parallel-layer" value="PARALLEL PROCESSING" style="text;html=1;strokeColor=none;fillColor=none;align=left;verticalAlign=middle;whiteSpace=wrap;rounded=0;fontSize=14;fontStyle=1;fontColor=#CC6600;" vertex="1" parent="1">
          <mxGeometry x="320" y="320" width="300" height="30" as="geometry" />
        </mxCell>

        <mxCell id="parallel-box" value="" style="rounded=1;whiteSpace=wrap;html=1;fillColor=#fff2cc;strokeColor=#d6b656;strokeWidth=3;opacity=30;" vertex="1" parent="1">
          <mxGeometry x="320" y="360" width="720" height="140" as="geometry" />
        </mxCell>

        <mxCell id="parallel-label" value="All 3 services called in parallel (non-blocking)" style="text;html=1;strokeColor=none;fillColor=none;align=center;verticalAlign=middle;whiteSpace=wrap;rounded=0;fontSize=11;fontStyle=1;fontColor=#CC6600;" vertex="1" parent="1">
          <mxGeometry x="420" y="370" width="320" height="20" as="geometry" />
        </mxCell>

        <mxCell id="boarding-service" value="Boarding Check&#xa;&#xa;Merchant Config&#xa;Provider mapping&#xa;Product selection&#xa;&#xa;DynamoDB lookup&#xa;p99 &lt;10ms" style="rounded=1;whiteSpace=wrap;html=1;fillColor=#fff2cc;strokeColor=#d6b656;verticalAlign=top;fontSize=10;fontStyle=1;strokeWidth=2;" vertex="1" parent="1">
          <mxGeometry x="340" y="400" width="180" height="90" as="geometry" />
        </mxCell>

        <mxCell id="rules-service" value="Rules Service&#xa;&#xa;Pre-call rules&#xa;Merchant whitelists&#xa;Velocity checks&#xa;&#xa;DynamoDB + Redis&#xa;p99 &lt;15ms" style="rounded=1;whiteSpace=wrap;html=1;fillColor=#fff2cc;strokeColor=#d6b656;verticalAlign=top;fontSize=10;fontStyle=1;strokeWidth=2;" vertex="1" parent="1">
          <mxGeometry x="540" y="400" width="180" height="90" as="geometry" />
        </mxCell>

        <mxCell id="bin-lookup" value="BIN Lookup Service&#xa;&#xa;Card network&#xa;Issuer identification&#xa;Card type&#xa;&#xa;Redis cache&#xa;p99 &lt;5ms" style="rounded=1;whiteSpace=wrap;html=1;fillColor=#fff2cc;strokeColor=#d6b656;verticalAlign=top;fontSize=10;fontStyle=1;strokeWidth=2;" vertex="1" parent="1">
          <mxGeometry x="740" y="400" width="180" height="90" as="geometry" />
        </mxCell>

        <mxCell id="router-to-boarding" value="" style="endArrow=classic;html=1;exitX=0.25;exitY=1;exitDx=0;exitDy=0;entryX=0.5;entryY=0;entryDx=0;entryDy=0;strokeWidth=2;strokeColor=#CC6600;fontSize=9;edgeStyle=orthogonalEdgeStyle;" edge="1" parent="1" source="fraud-router" target="boarding-service">
          <mxGeometry x="0.1" width="50" height="50" relative="1" as="geometry">
            <mxPoint x="700" y="350" as="sourcePoint" />
            <mxPoint x="750" y="300" as="targetPoint" />
            <mxPoint as="offset" />
            <Array as="points">
              <mxPoint x="890" y="330" />
              <mxPoint x="430" y="330" />
            </Array>
          </mxGeometry>
        </mxCell>

        <mxCell id="router-to-rules" value="" style="endArrow=classic;html=1;exitX=0.5;exitY=1;exitDx=0;exitDy=0;entryX=0.5;entryY=0;entryDx=0;entryDy=0;strokeWidth=2;strokeColor=#CC6600;fontSize=9;" edge="1" parent="1" source="fraud-router" target="rules-service">
          <mxGeometry x="0.1" width="50" height="50" relative="1" as="geometry">
            <mxPoint x="700" y="350" as="sourcePoint" />
            <mxPoint x="750" y="300" as="targetPoint" />
            <mxPoint as="offset" />
          </mxGeometry>
        </mxCell>

        <mxCell id="router-to-bin" value="" style="endArrow=classic;html=1;exitX=0.75;exitY=1;exitDx=0;exitDy=0;entryX=0.5;entryY=0;entryDx=0;entryDy=0;strokeWidth=2;strokeColor=#CC6600;fontSize=9;edgeStyle=orthogonalEdgeStyle;" edge="1" parent="1" source="fraud-router" target="bin-lookup">
          <mxGeometry x="0.1" width="50" height="50" relative="1" as="geometry">
            <mxPoint x="700" y="350" as="sourcePoint" />
            <mxPoint x="750" y="300" as="targetPoint" />
            <mxPoint as="offset" />
            <Array as="points">
              <mxPoint x="990" y="330" />
              <mxPoint x="830" y="330" />
            </Array>
          </mxGeometry>
        </mxCell>

        <mxCell id="decision-layer" value="DECISION POINT" style="text;html=1;strokeColor=none;fillColor=none;align=left;verticalAlign=middle;whiteSpace=wrap;rounded=0;fontSize=14;fontStyle=1;fontColor=#CC0000;" vertex="1" parent="1">
          <mxGeometry x="320" y="530" width="200" height="30" as="geometry" />
        </mxCell>

        <mxCell id="pre-call-decision" value="Pre-call Rules&#xa;Decision?" style="rhombus;whiteSpace=wrap;html=1;fillColor=#f8cecc;strokeColor=#b85450;fontStyle=1;fontSize=11;strokeWidth=2;" vertex="1" parent="1">
          <mxGeometry x="570" y="560" width="120" height="120" as="geometry" />
        </mxCell>

        <mxCell id="parallel-to-decision" value="Aggregate&#xa;results" style="endArrow=classic;html=1;exitX=0.5;exitY=1;exitDx=0;exitDy=0;entryX=0.5;entryY=0;entryDx=0;entryDy=0;strokeWidth=2;strokeColor=#CC6600;fontSize=9;" edge="1" parent="1" source="rules-service" target="pre-call-decision">
          <mxGeometry x="0.1" width="50" height="50" relative="1" as="geometry">
            <mxPoint x="700" y="550" as="sourcePoint" />
            <mxPoint x="750" y="500" as="targetPoint" />
            <mxPoint as="offset" />
          </mxGeometry>
        </mxCell>

        <mxCell id="early-decline" value="Early Decline&#xa;&#xa;Return to Gateway:&#xa;{&#xa;  decision: DECLINE,&#xa;  reason: PRE_CALL_RULE,&#xa;  rule_name: ...,&#xa;  latency: ~20ms&#xa;}" style="rounded=1;whiteSpace=wrap;html=1;fillColor=#f8cecc;strokeColor=#b85450;verticalAlign=top;fontSize=10;fontStyle=1;strokeWidth=2;align=left;" vertex="1" parent="1">
          <mxGeometry x="340" y="590" width="180" height="100" as="geometry" />
        </mxCell>

        <mxCell id="decision-to-decline" value="DECLINE" style="endArrow=classic;html=1;exitX=0;exitY=0.5;exitDx=0;exitDy=0;entryX=1;entryY=0.5;entryDx=0;entryDy=0;strokeWidth=3;strokeColor=#CC0000;fontSize=10;fontStyle=1;" edge="1" parent="1" source="pre-call-decision" target="early-decline">
          <mxGeometry x="0.1" width="50" height="50" relative="1" as="geometry">
            <mxPoint x="500" y="700" as="sourcePoint" />
            <mxPoint x="550" y="650" as="targetPoint" />
            <mxPoint as="offset" />
          </mxGeometry>
        </mxCell>

        <mxCell id="provider-layer" value="FRAUD PROVIDER INTEGRATION" style="text;html=1;strokeColor=none;fillColor=none;align=left;verticalAlign=middle;whiteSpace=wrap;rounded=0;fontSize=14;fontStyle=1;fontColor=#0066CC;" vertex="1" parent="1">
          <mxGeometry x="760" y="530" width="400" height="30" as="geometry" />
        </mxCell>

        <mxCell id="adapter-decision" value="Product&#xa;Type?" style="rhombus;whiteSpace=wrap;html=1;fillColor=#fff2cc;strokeColor=#d6b656;fontStyle=1;fontSize=11;strokeWidth=2;" vertex="1" parent="1">
          <mxGeometry x="760" y="580" width="100" height="100" as="geometry" />
        </mxCell>

        <mxCell id="decision-to-adapter" value="PROCEED" style="endArrow=classic;html=1;exitX=1;exitY=0.5;exitDx=0;exitDy=0;entryX=0;entryY=0.5;entryDx=0;entryDy=0;strokeWidth=3;strokeColor=#009900;fontSize=10;fontStyle=1;" edge="1" parent="1" source="pre-call-decision" target="adapter-decision">
          <mxGeometry x="0.1" width="50" height="50" relative="1" as="geometry">
            <mxPoint x="700" y="650" as="sourcePoint" />
            <mxPoint x="750" y="600" as="targetPoint" />
            <mxPoint as="offset" />
          </mxGeometry>
        </mxCell>

        <mxCell id="fraudsight-adapter" value="FraudSight Adapter&#xa;&#xa;Ravelin API Integration&#xa;Request transformation&#xa;Circuit breaker&#xa;Connection pooling&#xa;&#xa;p99 &lt;80ms" style="rounded=1;whiteSpace=wrap;html=1;fillColor=#dae8fc;strokeColor=#6c8ebf;verticalAlign=top;fontSize=10;fontStyle=1;strokeWidth=2;align=left;" vertex="1" parent="1">
          <mxGeometry x="920" y="550" width="180" height="110" as="geometry" />
        </mxCell>

        <mxCell id="gp-adapter" value="GuaranteedPayment Adapter&#xa;&#xa;Signifyd API Integration&#xa;Request transformation&#xa;Circuit breaker&#xa;Connection pooling&#xa;&#xa;p99 &lt;350ms" style="rounded=1;whiteSpace=wrap;html=1;fillColor=#dae8fc;strokeColor=#6c8ebf;verticalAlign=top;fontSize=10;fontStyle=1;strokeWidth=2;align=left;" vertex="1" parent="1">
          <mxGeometry x="920" y="680" width="180" height="110" as="geometry" />
        </mxCell>

        <mxCell id="adapter-to-fraudsight" value="FRAUD_SIGHT" style="endArrow=classic;html=1;exitX=1;exitY=0.25;exitDx=0;exitDy=0;entryX=0;entryY=0.5;entryDx=0;entryDy=0;strokeWidth=2;strokeColor=#0066CC;fontSize=9;fontStyle=1;" edge="1" parent="1" source="adapter-decision" target="fraudsight-adapter">
          <mxGeometry x="0.1" width="50" height="50" relative="1" as="geometry">
            <mxPoint x="880" y="650" as="sourcePoint" />
            <mxPoint x="930" y="600" as="targetPoint" />
            <mxPoint as="offset" />
          </mxGeometry>
        </mxCell>

        <mxCell id="adapter-to-gp" value="GUARANTEED&#xa;_PAYMENT" style="endArrow=classic;html=1;exitX=1;exitY=0.75;exitDx=0;exitDy=0;entryX=0;entryY=0.5;entryDx=0;entryDy=0;strokeWidth=2;strokeColor=#0066CC;fontSize=9;fontStyle=1;" edge="1" parent="1" source="adapter-decision" target="gp-adapter">
          <mxGeometry x="0.1" width="50" height="50" relative="1" as="geometry">
            <mxPoint x="880" y="750" as="sourcePoint" />
            <mxPoint x="930" y="700" as="targetPoint" />
            <mxPoint as="offset" />
          </mxGeometry>
        </mxCell>

        <mxCell id="ravelin-provider" value="Ravelin&#xa;FraudSight API&#xa;&#xa;ML fraud scoring&#xa;Device fingerprinting&#xa;Behavioral analytics" style="rounded=1;whiteSpace=wrap;html=1;fillColor=#ffe6cc;strokeColor=#d79b00;verticalAlign=top;fontSize=10;fontStyle=1;strokeWidth=3;" vertex="1" parent="1">
          <mxGeometry x="1140" y="550" width="160" height="110" as="geometry" />
        </mxCell>

        <mxCell id="signifyd-provider" value="Signifyd&#xa;GuaranteedPayment API&#xa;&#xa;Chargeback guarantee&#xa;Financial liability shift&#xa;Extended analysis" style="rounded=1;whiteSpace=wrap;html=1;fillColor=#ffe6cc;strokeColor=#d79b00;verticalAlign=top;fontSize=10;fontStyle=1;strokeWidth=3;" vertex="1" parent="1">
          <mxGeometry x="1140" y="680" width="160" height="110" as="geometry" />
        </mxCell>

        <mxCell id="adapter-to-ravelin" value="HTTPS&#xa;REST" style="endArrow=classic;startArrow=classic;html=1;exitX=1;exitY=0.5;exitDx=0;exitDy=0;entryX=0;entryY=0.5;entryDx=0;entryDy=0;strokeWidth=3;strokeColor=#CC6600;fontSize=9;" edge="1" parent="1" source="fraudsight-adapter" target="ravelin-provider">
          <mxGeometry x="0.1" width="50" height="50" relative="1" as="geometry">
            <mxPoint x="1100" y="650" as="sourcePoint" />
            <mxPoint x="1150" y="600" as="targetPoint" />
            <mxPoint as="offset" />
          </mxGeometry>
        </mxCell>

        <mxCell id="adapter-to-signifyd" value="HTTPS&#xa;REST" style="endArrow=classic;startArrow=classic;html=1;exitX=1;exitY=0.5;exitDx=0;exitDy=0;entryX=0;entryY=0.5;entryDx=0;entryDy=0;strokeWidth=3;strokeColor=#CC6600;fontSize=9;" edge="1" parent="1" source="gp-adapter" target="signifyd-provider">
          <mxGeometry x="0.1" width="50" height="50" relative="1" as="geometry">
            <mxPoint x="1100" y="750" as="sourcePoint" />
            <mxPoint x="1150" y="700" as="targetPoint" />
            <mxPoint as="offset" />
          </mxGeometry>
        </mxCell>

        <mxCell id="response-layer" value="RESPONSE HANDLING" style="text;html=1;strokeColor=none;fillColor=none;align=left;verticalAlign=middle;whiteSpace=wrap;rounded=0;fontSize=14;fontStyle=1;fontColor=#009900;" vertex="1" parent="1">
          <mxGeometry x="1340" y="530" width="240" height="30" as="geometry" />
        </mxCell>

        <mxCell id="post-call-rules" value="Post-call Rules&#xa;Evaluation&#xa;&#xa;Score thresholds&#xa;Decision override&#xa;Custom merchant logic&#xa;&#xa;p99 &lt;10ms" style="rounded=1;whiteSpace=wrap;html=1;fillColor=#fff2cc;strokeColor=#d6b656;verticalAlign=top;fontSize=10;fontStyle=1;strokeWidth=2;align=left;" vertex="1" parent="1">
          <mxGeometry x="1340" y="570" width="180" height="110" as="geometry" />
        </mxCell>

        <mxCell id="ravelin-to-rules" value="" style="endArrow=classic;html=1;exitX=1;exitY=0.5;exitDx=0;exitDy=0;entryX=0;entryY=0.25;entryDx=0;entryDy=0;strokeWidth=2;strokeColor=#0066CC;fontSize=9;edgeStyle=orthogonalEdgeStyle;" edge="1" parent="1" source="ravelin-provider" target="post-call-rules">
          <mxGeometry x="0.1" width="50" height="50" relative="1" as="geometry">
            <mxPoint x="1300" y="650" as="sourcePoint" />
            <mxPoint x="1350" y="600" as="targetPoint" />
            <mxPoint as="offset" />
            <Array as="points">
              <mxPoint x="1320" y="605" />
              <mxPoint x="1320" y="598" />
            </Array>
          </mxGeometry>
        </mxCell>

        <mxCell id="signifyd-to-rules" value="" style="endArrow=classic;html=1;exitX=1;exitY=0.5;exitDx=0;exitDy=0;entryX=0;entryY=0.75;entryDx=0;entryDy=0;strokeWidth=2;strokeColor=#0066CC;fontSize=9;edgeStyle=orthogonalEdgeStyle;" edge="1" parent="1" source="signifyd-provider" target="post-call-rules">
          <mxGeometry x="0.1" width="50" height="50" relative="1" as="geometry">
            <mxPoint x="1300" y="750" as="sourcePoint" />
            <mxPoint x="1350" y="700" as="targetPoint" />
            <mxPoint as="offset" />
            <Array as="points">
              <mxPoint x="1320" y="735" />
              <mxPoint x="1320" y="653" />
            </Array>
          </mxGeometry>
        </mxCell>

        <mxCell id="final-response" value="Final Response to Gateway&#xa;&#xa;{&#xa;  transaction_id: ...,&#xa;  decision: APPROVE / DECLINE / REVIEW,&#xa;  fraud_score: 0.0-1.0,&#xa;  provider: RAVELIN / SIGNIFYD,&#xa;  latency_ms: ...,&#xa;  reason_codes: [...],&#xa;  recommendation: ...&#xa;}" style="rounded=1;whiteSpace=wrap;html=1;fillColor=#d5e8d4;strokeColor=#82b366;verticalAlign=top;fontSize=10;fontStyle=1;strokeWidth=3;align=left;" vertex="1" parent="1">
          <mxGeometry x="1340" y="710" width="220" height="150" as="geometry" />
        </mxCell>

        <mxCell id="rules-to-response" value="Enrich" style="endArrow=classic;html=1;exitX=0.5;exitY=1;exitDx=0;exitDy=0;entryX=0.5;entryY=0;entryDx=0;entryDy=0;strokeWidth=3;strokeColor=#009900;fontSize=9;" edge="1" parent="1" source="post-call-rules" target="final-response">
          <mxGeometry x="0.1" width="50" height="50" relative="1" as="geometry">
            <mxPoint x="1400" y="750" as="sourcePoint" />
            <mxPoint x="1450" y="700" as="targetPoint" />
            <mxPoint as="offset" />
          </mxGeometry>
        </mxCell>

        <mxCell id="response-to-gateway" value="HTTP 200 OK&#xa;&#xa;Total p99:&#xa;FraudSight: &lt;100ms&#xa;GuaranteedPayment: &lt;350ms" style="endArrow=classic;html=1;exitX=0;exitY=0.5;exitDx=0;exitDy=0;entryX=1;entryY=0.75;entryDx=0;entryDy=0;strokeWidth=3;strokeColor=#009900;fontSize=9;edgeStyle=orthogonalEdgeStyle;" edge="1" parent="1" source="final-response" target="payment-gateway">
          <mxGeometry x="0.1" width="50" height="50" relative="1" as="geometry">
            <mxPoint x="800" y="850" as="sourcePoint" />
            <mxPoint x="850" y="800" as="targetPoint" />
            <mxPoint as="offset" />
            <Array as="points">
              <mxPoint x="1320" y="785" />
              <mxPoint x="1320" y="870" />
              <mxPoint x="280" y="870" />
              <mxPoint x="280" y="248" />
            </Array>
          </mxGeometry>
        </mxCell>

        <mxCell id="async-layer" value="ASYNC EVENT STREAMING" style="text;html=1;strokeColor=none;fillColor=none;align=left;verticalAlign=middle;whiteSpace=wrap;rounded=0;fontSize=14;fontStyle=1;fontColor=#666666;" vertex="1" parent="1">
          <mxGeometry x="40" y="530" width="240" height="30" as="geometry" />
        </mxCell>

        <mxCell id="async-note" value="Non-blocking Event Publishing&#xa;&#xa;All adapters publish to Kafka:&#xa;• fs.transactions (success)&#xa;• fs.declines (declined)&#xa;• async.events (enrichment)&#xa;&#xa;Consumed by:&#xa;• Issuer Data Service&#xa;• Analytics pipeline&#xa;• Async Processor&#xa;&#xa;Does NOT block sync response" style="text;html=1;strokeColor=#82b366;fillColor=#d5e8d4;align=left;verticalAlign=top;whiteSpace=wrap;rounded=1;fontSize=10;fontStyle=0" vertex="1" parent="1">
          <mxGeometry x="40" y="570" width="240" height="200" as="geometry" />
        </mxCell>

        <mxCell id="tokenization-note" value="PAN Tokenization (Async)&#xa;&#xa;Fraud Router publishes clear PAN&#xa;to pan.queue (Kafka)&#xa;&#xa;Tokenization Service:&#xa;• Consumes from pan.queue&#xa;• Encrypts with active DEK&#xa;• Stores in Aurora PostgreSQL&#xa;&#xa;Happens in background,&#xa;does NOT block response" style="text;html=1;strokeColor=#d6b656;fillColor=#fff2cc;align=left;verticalAlign=top;whiteSpace=wrap;rounded=1;fontSize=10;fontStyle=0" vertex="1" parent="1">
          <mxGeometry x="40" y="800" width="240" height="170" as="geometry" />
        </mxCell>

        <mxCell id="metrics-box" value="" style="rounded=1;whiteSpace=wrap;html=1;fillColor=#f5f5f5;strokeColor=#666666;dashed=1;" vertex="1" parent="1">
          <mxGeometry x="1340" y="110" width="220" height="380" as="geometry" />
        </mxCell>
        <mxCell id="metrics-title" value="Key Performance Metrics" style="text;html=1;strokeColor=none;fillColor=none;align=left;verticalAlign=middle;whiteSpace=wrap;rounded=0;fontSize=12;fontStyle=1" vertex="1" parent="1">
          <mxGeometry x="1350" y="120" width="200" height="20" as="geometry" />
        </mxCell>
        <mxCell id="perf-1" value="End-to-End Latency (p99)" style="text;html=1;strokeColor=none;fillColor=none;align=left;verticalAlign=middle;whiteSpace=wrap;rounded=0;fontSize=10;fontStyle=1" vertex="1" parent="1">
          <mxGeometry x="1355" y="150" width="190" height="20" as="geometry" />
        </mxCell>
        <mxCell id="perf-1-val" value="• FraudSight: <100ms&#xa;• GuaranteedPayment: <350ms" style="text;html=1;strokeColor=none;fillColor=none;align=left;verticalAlign=top;whiteSpace=wrap;rounded=0;fontSize=9;" vertex="1" parent="1">
          <mxGeometry x="1360" y="170" width="190" height="30" as="geometry" />
        </mxCell>

        <mxCell id="perf-2" value="Component Breakdown" style="text;html=1;strokeColor=none;fillColor=none;align=left;verticalAlign=middle;whiteSpace=wrap;rounded=0;fontSize=10;fontStyle=1" vertex="1" parent="1">
          <mxGeometry x="1355" y="205" width="190" height="20" as="geometry" />
        </mxCell>
        <mxCell id="perf-2-val" value="• Gateway → ETS: <10ms&#xa;• ETS → Router: <5ms&#xa;• Parallel processing: <20ms&#xa;• Adapter → Provider: <80ms&#xa;• Post-call rules: <10ms" style="text;html=1;strokeColor=none;fillColor=none;align=left;verticalAlign=top;whiteSpace=wrap;rounded=0;fontSize=9;" vertex="1" parent="1">
          <mxGeometry x="1360" y="225" width="190" height="80" as="geometry" />
        </mxCell>

        <mxCell id="perf-3" value="Throughput Capacity" style="text;html=1;strokeColor=none;fillColor=none;align=left;verticalAlign=middle;whiteSpace=wrap;rounded=0;fontSize=10;fontStyle=1" vertex="1" parent="1">
          <mxGeometry x="1355" y="310" width="190" height="20" as="geometry" />
        </mxCell>
        <mxCell id="perf-3-val" value="• Sync: 300 TPS per region&#xa;• Async: 1,000 TPS per region&#xa;• Total: 1,300 TPS per region" style="text;html=1;strokeColor=none;fillColor=none;align=left;verticalAlign=top;whiteSpace=wrap;rounded=0;fontSize=9;" vertex="1" parent="1">
          <mxGeometry x="1360" y="330" width="190" height="50" as="geometry" />
        </mxCell>

        <mxCell id="perf-4" value="Availability" style="text;html=1;strokeColor=none;fillColor=none;align=left;verticalAlign=middle;whiteSpace=wrap;rounded=0;fontSize=10;fontStyle=1" vertex="1" parent="1">
          <mxGeometry x="1355" y="385" width="190" height="20" as="geometry" />
        </mxCell>
        <mxCell id="perf-4-val" value="• Target: 99.9% uptime&#xa;• Multi-AZ deployment&#xa;• Circuit breakers enabled&#xa;• Auto-scaling (10-60 pods)" style="text;html=1;strokeColor=none;fillColor=none;align=left;verticalAlign=top;whiteSpace=wrap;rounded=0;fontSize=9;" vertex="1" parent="1">
          <mxGeometry x="1360" y="405" width="190" height="60" as="geometry" />
        </mxCell>

        <mxCell id="perf-5" value="Early Decline Optimization" style="text;html=1;strokeColor=none;fillColor=none;align=left;verticalAlign=middle;whiteSpace=wrap;rounded=0;fontSize=10;fontStyle=1" vertex="1" parent="1">
          <mxGeometry x="1355" y="470" width="190" height="20" as="geometry" />
        </mxCell>
        <mxCell id="perf-5-val" value="Pre-call rules can decline&#xa;in ~20ms, avoiding expensive&#xa;provider API calls" style="text;html=1;strokeColor=none;fillColor=none;align=left;verticalAlign=top;whiteSpace=wrap;rounded=0;fontSize=9;" vertex="1" parent="1">
          <mxGeometry x="1360" y="490" width="190" height="50" as="geometry" />
        </mxCell>

      </root>
    </mxGraphModel>
  </diagram>
</mxfile>
